<?xml version="1.0" encoding="UTF-8"?> <svg xmlns="http://www.w3.org/2000/svg" id="Layer_1" data-name="Layer 1" viewBox="0 0 770 115"><defs><style>.cls-1{fill:#004a98;}.cls-2{fill:#0099a8;}</style></defs><polygon class="cls-1" points="121.21 44.39 136.1 79.97 150.62 44.39 161.04 44.39 161.04 91.01 152.86 91.01 152.86 54.56 139.08 88.65 131.76 88.65 117.98 54.56 117.98 91.01 110.66 91.01 110.66 44.39 121.21 44.39"></polygon><path class="cls-1" d="M180.29,85.43a6.37,6.37,0,0,0,5.77-3.22,12.83,12.83,0,0,0,1.11-6v-.74h-1.86c-3.6,0-9.8,0-9.8,5.33,0,2.73,1.61,4.59,4.78,4.59m-9.87-27.52a35.83,35.83,0,0,1,10.92-1.49c5.09,0,9.68.87,12,4.21,1.86,2.61,1.86,6.08,1.86,9.18V81.46c0,1.43,0,4,2.92,4a7.39,7.39,0,0,0,1.8-.25v5.71a19,19,0,0,1-4.35.49c-4.34,0-7.07-1.49-7.57-6.07-1.24,4-5.09,6.2-10,6.2-6.7,0-10.92-4.1-10.92-10.23,0-7.38,6.08-11,16.88-11,2,0,3.22.13,3.22.13,0-2.86,0-4.22-1-5.71s-2.67-2.23-6-2.23a28,28,0,0,0-9.25,1.74h-.49Z"></path><path class="cls-1" d="M226.27,64.23h-.5a26.07,26.07,0,0,0-8.19-1.74c-3.47,0-5.09,1.37-5.09,3.1,0,5.27,15.39,3.72,15.39,15.5,0,7.25-5.77,10.41-14,10.41a26.38,26.38,0,0,1-9.62-1.61V83.32h.5a30.69,30.69,0,0,0,9.56,2.11c3.72,0,5.33-1.49,5.33-3.47,0-6.14-15.39-4.34-15.39-15.44,0-6.2,4.84-10.1,13.47-10.1a29.23,29.23,0,0,1,8.5,1.24Z"></path><path class="cls-1" d="M254.82,64.23h-.5a26.16,26.16,0,0,0-8.19-1.74c-3.48,0-5.09,1.37-5.09,3.1,0,5.27,15.39,3.72,15.39,15.5,0,7.25-5.77,10.41-14,10.41a26.32,26.32,0,0,1-9.62-1.61V83.32h.5a30.67,30.67,0,0,0,9.55,2.11c3.72,0,5.34-1.49,5.34-3.47,0-6.14-15.39-4.34-15.39-15.44,0-6.2,4.84-10.1,13.46-10.1a29.35,29.35,0,0,1,8.51,1.24Z"></path><path class="cls-1" d="M313,66.34V89.15a41.68,41.68,0,0,1-14.33,2.48c-14.34,0-24.14-7.44-24.14-23.56,0-16.49,10.3-24.18,25.19-24.18a41.8,41.8,0,0,1,11.79,1.62v6.57H311a32.24,32.24,0,0,0-11.05-2c-10.3,0-16.63,5.45-16.63,17.48s6.33,17.85,15.39,17.85a21.13,21.13,0,0,0,6.08-.87v-12h-8.31v-6.2Z"></path><path class="cls-1" d="M341.39,70.68c0-5.71-1.74-8.93-6.46-8.93s-6.7,3.41-7.2,8.93ZM347.71,90a39.29,39.29,0,0,1-10.79,1.48c-6.58,0-10.43-1.73-13-4.21-3.1-3-4.59-7.44-4.59-13.08C319.29,63.11,325,56,335.18,56c5.58,0,9.8,2.11,12.16,6s2.36,8.92,2.36,14.25h-22c0,5.83,3.35,9.3,9.81,9.3a32.14,32.14,0,0,0,9.68-1.86h.49Z"></path><path class="cls-1" d="M362.92,56.91l1.49,5.83c1.11-4,4.22-6.57,10.11-6.57,5.28,0,8.26,2.11,9.87,4.46,2,2.86,2,6.2,2,10.29V91h-8.2V70.8c0-2,0-4-1.11-5.58s-2.73-2.48-5.4-2.48c-6.15,0-6.89,4.71-6.89,7.44V91h-8.19V56.91Z"></path><path class="cls-1" d="M414.74,70.68c0-5.71-1.74-8.93-6.46-8.93s-6.7,3.41-7.2,8.93ZM421.07,90a39.42,39.42,0,0,1-10.8,1.48c-6.58,0-10.43-1.73-13-4.21-3.11-3-4.6-7.44-4.6-13.08,0-11.1,5.71-18.17,15.89-18.17,5.59,0,9.8,2.11,12.16,6s2.36,8.92,2.36,14.25h-22c0,5.83,3.35,9.3,9.81,9.3a32.14,32.14,0,0,0,9.68-1.86h.5Z"></path><path class="cls-1" d="M449.05,64.23a18.67,18.67,0,0,0-3.6-.37c-7.32,0-7.32,5.39-7.32,8.06V91h-8.19V56.91h6.21l1.61,6.7c1.24-5.71,5.46-7.07,10.43-7.07h.86Z"></path><path class="cls-1" d="M464.26,85.43A6.36,6.36,0,0,0,470,82.21a12.73,12.73,0,0,0,1.12-6v-.74h-1.87c-3.59,0-9.8,0-9.8,5.33,0,2.73,1.62,4.59,4.78,4.59m-9.87-27.52a35.83,35.83,0,0,1,10.92-1.49c5.09,0,9.69.87,12,4.21,1.86,2.61,1.86,6.08,1.86,9.18V81.46c0,1.43,0,4,2.92,4a7.39,7.39,0,0,0,1.8-.25v5.71a18.84,18.84,0,0,1-4.34.49c-4.35,0-7.08-1.49-7.58-6.07-1.24,4-5.08,6.2-10.05,6.2-6.7,0-10.92-4.1-10.92-10.23,0-7.38,6.08-11,16.88-11,2,0,3.23.13,3.23.13,0-2.86,0-4.22-1-5.71s-2.66-2.23-6-2.23a27.93,27.93,0,0,0-9.24,1.74h-.5Z"></path><polygon class="cls-1" points="497.15 42.66 497.15 63.61 497.15 91.01 489.08 91.01 489.08 42.66 497.15 42.66"></polygon><path class="cls-1" d="M528.3,85.06H535a13.22,13.22,0,0,0,7-1.37,6.53,6.53,0,0,0,3.35-6.19A6.52,6.52,0,0,0,542,71.3a13.22,13.22,0,0,0-7-1.37h-6.7Zm0-21.45H534a11,11,0,0,0,5.58-1,6,6,0,0,0,3-5.58,6.17,6.17,0,0,0-3-5.71,11,11,0,0,0-5.58-1H528.3Zm6.83-19.22c3.6,0,7.57,0,10.92,2,2.85,1.68,5.09,4.59,5.09,9.49,0,9.3-8.19,10.23-8.19,10.23s10.92.49,10.92,11.53A12,12,0,0,1,548,88.41c-4.09,2.6-8.81,2.6-12.66,2.6H520.11V44.39Z"></path><path class="cls-1" d="M579.25,64.23a18.81,18.81,0,0,0-3.6-.37c-7.32,0-7.32,5.39-7.32,8.06V91h-8.19V56.91h6.2l1.62,6.7c1.24-5.71,5.45-7.07,10.42-7.07h.87Z"></path><path class="cls-1" d="M592.22,56.91V91h-8.07V56.91Zm.87-9.67a4.91,4.91,0,1,1-4.9-4.83,4.71,4.71,0,0,1,4.9,4.83"></path><path class="cls-1" d="M619.65,67.08c0-3.47-2.11-5.33-5.71-5.33s-5.71,1.86-5.71,5.33,2.11,5.33,5.71,5.33,5.71-1.86,5.71-5.33M607,89.77a4.77,4.77,0,0,0-2.36,4.09c0,3,2.61,4.34,8.56,4.34,6.58,0,10.06-1.61,10.06-4.83,0-3.48-4.22-3.6-6.21-3.6Zm7-11.66a21.89,21.89,0,0,1-4.65-.43,3.06,3.06,0,0,0-1.8,2.79c0,2.6,2.73,2.6,4.59,2.6h5.83c4.22,0,13.4,0,13.4,9.18,0,7.44-5.95,11.41-18.43,11.41-10.92,0-15.69-3-15.69-8.25,0-6,6.32-6.82,6.63-6.88-.18-.06-4.4-1.49-4.4-5.83s4.22-5.83,6.39-6.26a10.09,10.09,0,0,1-5.9-9.36c0-6.69,5.47-11,14-11,4.22,0,7.69,1.06,10.11,3,1.55-4.34,5.16-4.34,7.26-4.34h.75v6.7a15.43,15.43,0,0,0-2.73-.25,6.9,6.9,0,0,0-2.86.49A10.56,10.56,0,0,1,628,67.08c0,6.7-5.46,11-14,11"></path><path class="cls-1" d="M645.4,42.65V62.24c1.12-3.59,3.85-6.07,9.68-6.07,5.34,0,8.32,2.11,9.93,4.46,2,2.85,2,6.2,2,10.29V91h-8.19V70.8c0-2,0-4-1.12-5.58s-2.73-2.48-5.4-2.48c-6.14,0-6.89,4.71-6.89,7.44V91h-8.07V42.65Z"></path><path class="cls-1" d="M685.86,85.43a6.35,6.35,0,0,0,5.77-3.22,12.73,12.73,0,0,0,1.12-6v-.74h-1.86c-3.6,0-9.8,0-9.8,5.33,0,2.73,1.61,4.59,4.77,4.59M676,57.91a35.83,35.83,0,0,1,10.92-1.49c5.09,0,9.68.87,12,4.21,1.86,2.61,1.86,6.08,1.86,9.18V81.46c0,1.43,0,4,2.92,4a7.39,7.39,0,0,0,1.8-.25v5.71a19,19,0,0,1-4.35.49c-4.34,0-7.07-1.49-7.57-6.07-1.24,4-5.09,6.2-10,6.2-6.71,0-10.92-4.1-10.92-10.23,0-7.38,6.08-11,16.87-11,2,0,3.23.13,3.23.13,0-2.86,0-4.22-1-5.71s-2.67-2.23-6-2.23a28,28,0,0,0-9.25,1.74H676Z"></path><path class="cls-1" d="M717,56.91l1.48,5.83c1-3.84,3.85-6.57,9.87-6.57s8.88,2.6,10.37,6.82c1.61-4.59,4.71-6.82,9.92-6.82s8.19,2.36,9.56,4.46c1.86,2.86,1.86,6.2,1.86,10.29V91h-8.19V70.8c0-2,0-4-1-5.58a5.54,5.54,0,0,0-5.09-2.48c-5.59,0-6.33,4.71-6.33,7.44V91h-8.19V70.8c0-2,0-4-1-5.58a5.51,5.51,0,0,0-5.08-2.48c-5.59,0-6.33,4.71-6.33,7.44V91h-8.19V56.91Z"></path><polygon class="cls-2" points="9.92 44.39 9.92 60.97 9.92 76 19.69 76 19.69 44.39 9.92 44.39"></polygon><polygon class="cls-2" points="30.91 44.39 30.91 60.97 30.91 75.99 40.69 75.99 40.69 44.39 30.91 44.39"></polygon><polygon class="cls-2" points="51.91 44.39 51.91 60.97 51.91 75.99 61.69 75.99 61.69 44.39 51.91 44.39"></polygon><polygon class="cls-2" points="9.92 29.57 9.92 38.47 46.3 38.47 82.69 38.47 82.69 29.57 9.92 29.57"></polygon><polygon class="cls-2" points="46.3 5.22 9.92 17.34 9.92 26.54 46.3 14.41 82.68 26.54 82.68 17.34 46.3 5.22"></polygon><path class="cls-2" d="M82.69,75.29c-.2.54-3.73,6.62-27,6.62H36.87C13,82.1,10.37,85.2,9.92,85.53v9.09c.45-.33,3.12-3.43,26.95-3.61H55.73c23.23,0,26.76-6.09,27-6.62Z"></path><path class="cls-2" d="M82.69,90.45c-.2.54-3.73,6.62-27,6.62H36.87c-23.83.19-26.5,3.29-26.95,3.62v9.09c.45-.33,3.12-3.43,26.95-3.61H55.73c23.23,0,26.76-6.09,27-6.62Z"></path><path class="cls-2" d="M72.91,44.39v30c8-1.84,9.65-4.68,9.78-5V44.39Z"></path></svg> 